/* XPM */
static char *result[] = {
/* columns rows colors chars-per-pixel */
"64 64 236 2 ",
"   c black",
".  c #010101",
"X  c #020202",
"o  c gray1",
"O  c #040404",
"+  c gray2",
"@  c #060606",
"#  c #070707",
"$  c gray3",
"%  c #090909",
"&  c gray4",
"*  c #0B0B0B",
"=  c #0C0C0C",
"-  c gray5",
";  c #0E0E0E",
":  c gray6",
">  c #101010",
",  c #111111",
"<  c gray7",
"1  c #131313",
"2  c gray8",
"3  c #151515",
"4  c #161616",
"5  c gray9",
"6  c #181818",
"7  c #191919",
"8  c gray10",
"9  c #1B1B1B",
"0  c gray11",
"q  c #1D1D1D",
"w  c #1E1E1E",
"e  c gray12",
"r  c #202020",
"t  c gray13",
"y  c #222222",
"u  c #232323",
"i  c gray14",
"p  c #252525",
"a  c gray15",
"s  c #272727",
"d  c #282828",
"f  c gray16",
"g  c #2A2A2A",
"h  c gray17",
"j  c #2C2C2C",
"k  c #2D2D2D",
"l  c gray18",
"z  c #2F2F2F",
"x  c gray19",
"c  c #313131",
"v  c #323232",
"b  c gray20",
"n  c #343434",
"m  c #353535",
"M  c gray21",
"N  c #373737",
"B  c gray22",
"V  c #393939",
"C  c #3A3A3A",
"Z  c gray23",
"A  c #3C3C3C",
"S  c gray24",
"D  c #3E3E3E",
"F  c #3F3F3F",
"G  c gray25",
"H  c #414141",
"J  c gray26",
"K  c #434343",
"L  c #444444",
"P  c gray27",
"I  c #464646",
"U  c gray28",
"Y  c #484848",
"T  c #494949",
"R  c gray29",
"E  c #4B4B4B",
"W  c #4C4C4C",
"Q  c gray30",
"!  c #4E4E4E",
"~  c gray31",
"^  c #505050",
"/  c #515151",
"(  c gray32",
")  c #535353",
"_  c gray33",
"`  c #555555",
"'  c #565656",
"]  c gray34",
"[  c #585858",
"{  c gray35",
"}  c #5A5A5A",
"|  c #5B5B5B",
" . c gray36",
".. c #5D5D5D",
"X. c gray37",
"o. c #5F5F5F",
"O. c #606060",
"+. c gray38",
"@. c #626262",
"#. c gray39",
"$. c #646464",
"%. c #656565",
"&. c gray40",
"*. c #676767",
"=. c #686868",
"-. c DimGray",
";. c #6A6A6A",
":. c gray42",
">. c #6C6C6C",
",. c #6D6D6D",
"<. c gray43",
"1. c #6F6F6F",
"2. c gray44",
"3. c #717171",
"4. c #727272",
"5. c gray45",
"6. c #747474",
"7. c gray46",
"8. c #767676",
"9. c #777777",
"0. c gray47",
"q. c #797979",
"w. c gray48",
"e. c #7B7B7B",
"r. c #7C7C7C",
"t. c gray49",
"y. c #7E7E7E",
"u. c gray50",
"i. c #808080",
"p. c #818181",
"a. c gray51",
"s. c #838383",
"d. c #848484",
"f. c gray52",
"g. c #868686",
"h. c gray53",
"j. c #888888",
"k. c #898989",
"l. c gray54",
"z. c #8B8B8B",
"x. c gray55",
"c. c #8D8D8D",
"v. c #8E8E8E",
"b. c gray56",
"n. c #909090",
"m. c gray57",
"M. c #929292",
"N. c #939393",
"B. c gray58",
"V. c #959595",
"C. c gray59",
"Z. c #979797",
"A. c #989898",
"S. c gray60",
"D. c #9A9A9A",
"F. c #9B9B9B",
"G. c gray61",
"H. c #9D9D9D",
"J. c gray62",
"K. c #9F9F9F",
"L. c #A0A0A0",
"P. c gray63",
"I. c #A2A2A2",
"U. c gray64",
"Y. c #A4A4A4",
"T. c #A5A5A5",
"R. c gray65",
"E. c #A7A7A7",
"W. c gray66",
"Q. c #A9A9A9",
"!. c #AAAAAA",
"~. c gray67",
"^. c #ACACAC",
"/. c gray68",
"(. c #AEAEAE",
"). c #AFAFAF",
"_. c gray69",
"`. c #B1B1B1",
"'. c #B2B2B2",
"]. c gray70",
"[. c #B4B4B4",
"{. c gray71",
"}. c #B6B6B6",
"|. c #B7B7B7",
" X c gray72",
".X c #B9B9B9",
"XX c gray73",
"oX c #BBBBBB",
"OX c #BCBCBC",
"+X c gray74",
"@X c gray",
"#X c gray75",
"$X c #C0C0C0",
"%X c #C1C1C1",
"&X c gray76",
"*X c #C3C3C3",
"=X c gray77",
"-X c #C5C5C5",
";X c #C6C6C6",
":X c gray78",
">X c #C8C8C8",
",X c gray79",
"<X c #CACACA",
"1X c #CBCBCB",
"2X c gray80",
"3X c #CDCDCD",
"4X c #CECECE",
"5X c gray81",
"6X c #D0D0D0",
"7X c gray82",
"8X c #D2D2D2",
"9X c LightGray",
"0X c gray83",
"qX c #D5D5D5",
"wX c gray84",
"eX c #D7D7D7",
"rX c #D8D8D8",
"tX c gray85",
"yX c #DADADA",
"uX c gray86",
"iX c gainsboro",
"pX c #DDDDDD",
"aX c gray87",
"sX c #DFDFDF",
"dX c gray88",
"fX c #E1E1E1",
"gX c #E2E2E2",
"hX c gray89",
"jX c #E4E4E4",
"kX c gray90",
"lX c #E6E6E6",
"zX c #E7E7E7",
"xX c gray91",
"cX c #E9E9E9",
"vX c #EAEAEA",
"bX c gray92",
/* pixels */
"wXrXqXqX8X0XeXeXrXrXrXyXuXiXaXaXpXpXuXtXg.d J F f s N U { W A W R / ) _ E  .) S K F l ] .XuXtX8XtXiXpXaXaXaXaXpXaXsXsXfXfXfXgXjX",
"8X9X8X8X0XqXqXqXwXwXrXrXtXuXiXiXpXpX4X' N ( L ! B #.} ' &. .^ *.O.:.8.%.t.O.w.$.} L ! Q A I yX0XeXyXuXpXuXuXpXaXaXiXpXaXaXaXsXfX",
"9X9X8X8X7X0X0X8XeX0XeXrXtXtXuXuXpX0X} i D ..u.| e.z.:.q.,.O.z.y.5.%.b.a.4.!.| d.Z.).( | K b ( 4XrXyXtXyXuXuXtXiXiXuXuXuXpXpXiXiX",
"9X9X8X8X7X0X0XqXeX0XqXeXwXwXtXtXrX0.H k Q n.D.K 0.~.V n.L.d.G.8.a.q.&.N.7.L.w.q.OX.X/.@.} B c N wXtXeXtXtXtXyXuXuXtXyXyXyXyXuXuX",
"8X0X7X6X8X9X7X0XwXwX9XqXqXqXqXwX3Xv { | A.!.z.^ P e.1.4.0.4.V.&.z.N.( #.X.5.0.S._.r.R.^.k.i.J U  .eXeXwXwXtXtXtXyXtXrXtXtXyXuXuX",
"5X7X6X7X8X9X9X9X7X7X0X5X7X7X9XrXz.v g.l./.G.s.>.b R i.-.5...p.` 0.c.| Y D.=.3.n.e.^ }.^.oXI.p.Z } A.eXwXqXeXwXwXeXtXwXrXeXtXtXtX",
"5X5X6X8X9X8X6X8X7X8X6X5X7X3X5X5XV m d.t.~ z.k.t.L | x.5.h.;.0.( J  .G Z o.i.i.| ( %.$.;.@X'.} &._ ) qX9XqXqX0XqXqXwXeXwXrXrXeXeX",
"5X8X8X9X8X6X3X5X6X6X5X6X6X2X2X'.z M ~ { S w.!.N.s.V.c.v.#.2.;.Z n ~ B ( ..$.*.=.<.[ M j ' R.1XA./ ^ V.wX0X7X7X6X8XqXwXeXwXwXeXeX",
"6X6X7X9X6X5X5X5X3X5X3X3X1X<X3XN.9 c U ` A.XX*X2X1X&X;X{.H.k.n.O.5.o.$.&.:.S.!./.b._ J A J #._.!.x.n E 9X7X7X1X5X5X0X0XwXqXqXeXrX",
"8X7X9X0X0X5X5X5X<X,X,X>X<X2X2X2.e G u 7.$X3X8X8X8X0X9X4X%X&X&X].^.W.`.).{.OX2X7X;XOXQ.6.` j.{.}./ J R [.4X1X>X2X4X7X7X5X8XqXqXeX",
"7X7X8XqX8X8X4X3X2X4X>X:X:X2X,X$.w w r ^.*X5XqXqXrXrX0X0X0X9X0X9X5X2X7X5X7X0XtXeX0X8X$XG.+.3.t./ 8.) #.B.,X>X-X:X1X4X3X5X7X0XqXeX",
"9XwXwXwX8X8X4X3X3X,X;X;X>X:X5X6 7 e b.+X>X0XwXwXtXtXtXtXtXeXtXeXqXqX8X7X7X7XqXyXtXuXpX9XC.` a P U R i.;.>X*X=X;X,X3X<X2X9X5X7X8X",
"wXeXeXwX9X7X7X7X4X1X2X>X1X:X1X@ g q B.#X>X9XwXwXeXtXwXrXrXrXeXeXqXqX6X5X4X8X6X9XyXfXdXuX5.h.( ' 5.k C 0.$X#X*X:X-X<X1X1X5X3X4X5X",
"wXrXeXwXwX7X5X4X4X1X3X<X3X2X3X7 m k E.*X,X5X8XqX0XwXtXrX0X0X0X0X8XwX5X3X2X4X2X5XrXdXhXfXz.U L.6.O.p.n.{ |.&X&X&X*X>X>X>X1X2X4X5X",
"wXeXtXeX8X8X5X6X6X3X>X:X<X2X5X= 5 K `.%X<X5X8XwXeX9X9X9XqXqX9X0X9X3X7X6X2X7X7X9XrXfXxXgX}.2.D.u.n b 2.+.'.#X&X&X&X>X;X-X-X:X4X4X",
"wXeXtXeXeX0X7X4X3X3X2X:X<X2X;X% t 0.}.-X,X3X8X6X9X7X6X6X7X0XwXqX8X6X6X7X8X9X5X0XeXgXhXfX4Xp...OXZ.{ 0.6.'.&X+X+X%X$X*X-X*X:X3X3X",
"0XqXqXeX9X3X8X3X2X4X>X-X;X,X,X; v i.XX-X6X8X9XeXrXqXwX9X9XwXtXeX7X:X<X1X5X0X6X6XtXpXjXgXtX@XE.g.)._ M F |.oXoX+X#X#X&X-X$X*X>X1X",
"8X0XwX7X5X1X:X2X,X>X:X:X*X=X&X& A m.#X8.=.L.@X7XqX6XqX2XtXtXeXwX*X%XoXU.M.C.b.3XyXaXzXkXyXqX*XD.@Xn.J z {.[..XXXOXOX#X&X$X*X;X<X",
"8X9XqX8X7X<X<X,X-X,X=X&X%X=X%X+ T U.;.> 2 0 r j r.P.>X6XuXeX2X1Xb.Y q 1 7 e x P h.aXcXjX6X8X*X).s.G.| M !._..X|.OXOX@X%X$X*X1X4X",
"7X7X8X5X6X1X,X:X*X&X,X=X%X%X@X+ 1.s.M N.>X Xb.m ; i Z.7XuX>XF.>.e 7 9 ^ k.h.( S ! <XkXkXfXwX XK.9.V.3.c !._.`.]. X|.+X#X%X%X,X,X",
"8X8X9X6X4X,X;X-X*X#X%X=X%X=X%X# i.4.f. Xz.r.7.c.y.c.`.1XwX1X{.( 8.E.L.Z.d.K.&XA.>.J.0XfXfXuX:Xs.M g.P.+.).~.W.~._.|..X#X*X:X>X>X",
"5X5X8X4X5X,X-X*XOX$X+X#X*X;X:X  H.J._.D # 2 1 L t p ).7X6X,X:X-.$.A @.] u.a.M J.oX}.3XdXsXiXrXe.^ *.x.0.~.Q.E.!./.[.|.OXOX&X-X>X",
"4X6X4X,X2X=X=X&X$X$X=X=X-X6X:X  G.OX`.0 = % ) j.: r A.2X$X-XfX! l p = @ > U 9 c `.7X3XfXsXpXuXJ.-.2.U j.(.!./.^.`.`.}.[.oX&X%X=X",
"8X4X5X3X>X:X-X=X*X$X=X=X:X>X>X0 V.XXM.$X.X'.V.' l  .^.2X.X,XvX=XG C .X`.t.H.[.#XZ |.,XuXsXpXuX|.I >.J J._.Q.Q./.^.).`.).{..X%X%X",
"4X,X6X2X2X:X-X#X-X&X=X%X$X>Xa.G P.;X;XQ.}.*X~.$.X.A.*X<X|.1XbXdXu.F :.`.Y.x.H.%X*X~.$XuXdXfXuX{.[ ;.B (./.Q.R.~.!._.`._. XXXXX*X",
"4X2X2X6X4X;X=X*X%X@X=X%X=X>X4 ) (.4X@XQ.XX|.Y.x.Q.[.%X*X}.,XhXsX6XZ.} 7.S.d.l.E.1X8X5XrXfXiXsXOXc.).<XeX).E.R./.).(._.]. X.X#X=X",
"7X3X6X4X3X-X=X$X+XOX$X=X=X-X, | (.;X=X@X~.E.^..X#X+X}..X!.*XfXaX5X'.|.{./.^.^.|.:XwXwXpXjXsXaX0X@X8X^ 3 >XQ.Q._.~.^.`.{.XXoX$X*X",
"6X6X3X1X4X<X=X#X&X$X&X=X;X|.q +.^.-X3X3X$X_.'.-X=X X|.[.!.$XuXaX6X).^.}.+X-X=X4X8XeXiXdXfXsXqX6XtX}.&Xm ;XQ.Y.Q./.(.).`. X+XoX%X",
"7X5X3X2X<X,X:X*X&X=X=X=X;XI.T 3.T.@X,X,X-X@X;X<XR./.;X,X)..XfXtX:X-.A.`.%X3X;X5XqXpXpXgXfXiXtXqXtX<X:X#.XXY.E.T.!.!.~.^.}..X#X%X",
"6X3X4X1X2X:X;X-X&X=X*X*X;Xn.O.q.F.+X;X1X<X3X3XM.^.=X>X-XT.R.uXiXqXI ,.I.&X3X7XyXuXpXdXsXsXuXrXwXwX~ .Xc.+XE.P.T.E.!.~._.}..X$X#X",
"5X5X2X<X4X1X-X&X=X=X=X=X*XC.7.9.H.|.*X2XqX5X^.&.&X%.`.'.<.g.=X3..X&.c 7..X<X9XyXdXdXpXaXyXyXeX9XuXa :.T.|.U.U.Y.E.W.(.(.}.|.$X@X",
"1X4X3X>X,X;X>X;X=X=X;X;X;XG.$.:.A.].=X5X9X}.*.%X3XY._.c.F E.Q.G.N.C.U U M.+X3XpXdXdXaXpXyXtXwX8XeXJ o.F.R.I.L.Y.(././.(.[..XoX+X",
"7X2X,X,X,X;X>X=X=X&X=X&X-X}.I 9.L.(.+X>XoXb.T.3X;X#X_.OX:.I E ).&X*X*XY ! R.4XpXaXfXaXaXyXeXqX8X)._ h.v.A.K.U.R.E.!.!./..X.X@X#X",
"3X3X4X1X=X1X<X-X#X@X$X&X*X+Xu.f.F./..X+XW.~.;XP.h.%.7.g.v z.F.E.1.8.y.W.5.a.oXuXaXfXsXiXrXwX0X0Xj.6XoX[.G.T.U.E.!.E.).{.|.XX+X&X",
"4X4X4X4X3X7X4X:X&X$X$X$X%X*X2.e.v.(..X|._.=X%.Q u.{ n.v.$ U.+.`.0.3.2.g.)..X[.0XtXsXpXyXqX0X5X5X`.6Xn.G.P.H.H.T.!.^.)..X.X XoXOX",
"4X4X2X5X5XqX7X2X;X&X%X%X&X-Xq.p.D.(.+X}.@XJ H 1.+.p.w.` z $.W a.>.G.M.w.l.oX|.,XyXiXyXeX0X8X5X;X@X6X,XC.S.S.G.T.!.(.(.`..X@X+X@X",
"1X5X3X5X7X6X9X6X:X-X=X*X&X-XM.n.S._.$X&Xn.` _ H <.*.S 3 I Z 2.[ m./ v.H o.-.:X@XqXiXrXeX9X4X,XK.5X6XG.n.C.F.R.I.!.'.`.'.|.OX+X=X",
"4X5X9X1X5X8X7X1X,X<X&X%X&X>X6XH.L.'.oX`.| K j f s : = # h 3 1 5 M +.~ P *.,.!.-X7XwXeXqX9X1X=X( _.L.v.C.M.G.P.Q.)._.[. X+X|.oX&X",
"3X4X6X3X2X<X3X;X:X*X*X*X%X;X-X2XF.H.5.K w j 3 - 6 1 < Z -.e.^ l 1 $ w d a.c V ;X0X6XwX0XqX,X'.r.q.d.j.v.M.L.P.^.).}.{.]. XOX%X&X",
"4X6X6X:X-X<X<X-X:X;X&X;X=X&X=X,XF.(.6.f i > > H h.=X%X=X^.^.V.k.=.D 5 1 > > 7 a b.4XwX0X4X;XZ.e.w.p.f.v.V.K.T.Q.(./._.).{.OX#X%X",
"4X3X1X1X,X<X1X;X;X;X;X-X=X%X$X*XY.~.~.`.N.| b.OX%X|.E.m.n.B.Z.g.K.N.-.^ *.C @.P.@X3X0X6X1X-Xu.:.7.0.w.l.b.S.J.K.Y.E.!.Q.^. X$X%X",
"3X1X<X<X<X,X,X>X=X:X-X*X$X&X&X&XoXL.W.`.I.K.$X%X).W.K.m.m.>.2.8.C.].$X@X*X<X[.1X4X7X5X1X;XoX5.=.<.r.9.a.x.N.D.G.P.Y.E.Q.(.[.+X%X",
"2X2X3X2X4X,X>X-X&X=X=X%XOX#X#XOX&XA.J.Q.Y.!.[.|..X.X`.B.i.1.4.G._.*X6X9X5X9X;X>X,X8X6X<X:X}.<.O.4.e.r.p.z.c.n.n.F.H.I.Y.~.|.OX$X",
"<X>X,X3X:X>X-X=X*X@X%X+X@X$X$X$X=XR.G.Q.(.'.oX$X,X2X7X2X4X>X6XeXrXrXuX0X7X0X5X4X4X<X1X-X&XT.,.;.:.9.9.i.l.V.v.M.B.D.P.~.!. XOX*X",
"<X<X>X>X:X>X-X=X#X@X#XOX|.@X$X%X#X%XS.Y.|.XXoX=X1X7XqX0X8XwX0XyXuXaXiXuXtX9X0X5X<X2X,X-X&Xv.3.%.=.1.9.r.j.k.n.A.F.H.I.P.~. X#X@X",
",X1X:X>X,X;X-X%X+XOXXXoXoX&X$X@X*X'.u.J.(.)..X+X%X<X8X7X-X*XXX4XaXdXgXaXtXwX8X4X2X>X1X,X-Xz.7.>.5.8.5.q.y.z.v.A.P.D.H.R.).{.#X@X",
";X,X=X2X2X-X*X#X$XXX|. XoX@X#X$X*X= & G.V.P.W. X.X].@XXXB.P.XX|.wXtXyXwXwX5X7X1X<X-X,X<X1X-.q.6.3.q.4.r.p.l.n.G.P.J.L.R.(.[.|.#X",
">X>X;X<X>X;X;X@X@XoX|.{..XOX*X%X| # % i M.k.k.7.Y.~.Q.V.<.b.P.D.~.[.$X:X2X4X3X;X;X4X5X3X*X& a.f.r.w.e.y.g.M.n.K.J.P.Y./.].{.oX@X",
":X1X<X2X:X;X#X&XOXOX%X{.oXoX#XQ.% = 5 $ K Z.p.9.| =.#.T P |  . .4.M.~.-X:X-X,X,X5X2X8X5X|.i $.g.a.s.p.s.B.A.Z.H.I.T.E.(.|.|.%X#X",
"2X,X3X2X<X;X;X%X%X%XXX}. X+X}.% $ = 3 1 = ^ K.k.V.M.e.>.$.^ K G Y ! z..X=X>X1X8X8X7X6X7XG / K b.p.d.j.z.B.A.A.I.R.!.!.~.{. XOX%X",
"1X1X7X4X1X:X,X<X=X#X@XOX+XS.O & > , < 7 q 4 [ U.N.N.S.I.T.Y.f.` 1.j._.-X2X5X6X6X7X9X0X>Xu Q E >.k.h.h.v.Z.Z.I.E.W.W.^.).[.].XX@X",
"2X4X3X1X3X>X:X-X*X=X@X*XY.+ + : 2 3 6 6 c a 2 %.(.C.n.G.H.H.q.&.-.n.{.2X2X8X7X3X0X9X3X> #.I / U e.N.m.A.H.G.U.Q.W.~.^.^.(.{. X}.",
"9X8X4X3X,X>X;X>X%X=Xm.a * - # 5 w w 0 p w V S l | {.I.Q./.F.9.X. .i.`.4X3X5X6X4X5X0XJ G ^ ) ! } ! :.G.Y.U.Y.T.^._.).).(.`.`.[.#X",
"7X7X6X5X5X4X:X=.m G T *X> - 1 3 t a d r h l n I V D &X!.E.Y.j.,.O.e.].5X6X4X<X4X0X<.r =.' ~ ( ( U F c >.F.).`. X_._.^.`.W.`.'.@X",
"wX8X7X2Xw.w s i A } U i   - : < i a s d f z j x A p C #X'.P.m.7.=.4.R.2X5X9X>X8X>.e | _ W ^ ] R E F / :.I U / w.T.^.(.'. X+X%XoX",
"0Xl.C _.rXL 6 b x.f.0.u o 9 < 3 0 e i l d s b a b j z g 0XU.c.c.d.9.Y.*X7X0X8X@.T U -.` ] ' ( K / P K a.y.4.n H +.] ' n. X*X>X-X",
"M 5._.H. Xz.Y k.F t %     6 q j x g h l E B.k n V S I I z 4XZ.7.j.q.M.|.qX%XC.z.P =.*.T +.W R U J ( O.d Y 3.2.O.y.@X XK.>.6.k.'.",
"z V d e 8.D h 9   O = # X : v j c c b n T w s c n J H U G A >.gXC.a.C.G.t.zXf.D } $.X.( P.v.Y ! ~ [ ,.D Z 7. Xj.{.8XI.u.$.c.4.k.",
"M.l. .p < . X - : > : > X @ F c x H D Y., = H.c D H A Y _ / ( } K.lX/.bXgXn L 4.@.E E T [.4 V.) } _ | ! % - d O.$.g.a.H l F ;.0.",
"Z 8 O O + ; > 7 4 3 4 6 ; + L F n K ,.[ '.#.< @.G J A Y I _ ! &.1.r v.7.4 [ e.@.[ ~ #.' ].' ' K.o.[ -.) 6 4 4 e 5 5 M X.0.XXK.u.",
"  o > < 4 4 7 5 q 6 i 8 q 2 d F P U h wX XE d.) h V ! D F ! T ' s.f.; 0 ` 1.:.@.] ' Y / P./. XQ.N.X.%.-.z V n C Z v w u 4 a U &.",
"> 7 8 5 6 9 9 7 0 y 7 r 0 0 & W L P A.4.%.b.b o /.J K L G F ` | 1.m.. O u 0.@.~ X.O.E -.Q ;X=Xs.@ Y ,.u.n G I W Y P V v n l 9 7 ",
"q t y 6 3 < 7 w 5 t i e q t < I D G ^ & A q o O & D n Y U E R ~ a.s X + . 8 %.$.' /  .>.r A U.i.8 Z -.,.N A G ~ E P H v C H n b ",
"i u p 6 e 0 e t q 8 h s q t q 4 S E S x.o . % & $ +.s D F R W _ 3.# o & = # 7 1.` ) %.c.* $ : 1 F / %.X.B K Z I [ I Q E E P J K "
};
