/* XPM */
static char *result[] = {
/* columns rows colors chars-per-pixel */
"64 64 26 1 ",
"  c #C93627",
". c #C93628",
"X c #C93828",
"o c #CC4128",
"O c #D35F2B",
"+ c #D25D2D",
"@ c #D5662F",
"# c #D7732F",
"$ c #D56830",
"% c #D66A30",
"& c #DB8036",
"* c #DD8536",
"= c #E49E3C",
"- c #E7AB3E",
"; c #EEC544",
": c #F3D74A",
"> c #F5DC4B",
", c #F4DD4B",
"< c #F5DE4B",
"1 c #F5E14B",
"2 c #F7E84D",
"3 c #FBF250",
"4 c #FBF551",
"5 c #FCF752",
"6 c #FCF852",
"7 c #FDF953",
/* pixels */
"................................................................",
"................................................................",
"................................................................",
"................................................................",
"................................................................",
"................................................................",
"................................................................",
"................................................................",
"................................................................",
"................................................................",
"................................................................",
"................................................................",
"................................................................",
"................................................................",
"................................................................",
"...................................:............................",
"....................................77..........................",
"....................................-77.........................",
".....................................777........................",
"......................................777.......................",
"................................77....7777......................",
".............................577777....777......................",
".............................777777....7777.....................",
"............................777777......777.....................",
"...........................5777777......777=....................",
"...........................777777.......7777....................",
"..........................7777777.......;777....................",
".........................577777776.......777....................",
".........................777777777.......777 ...................",
".........................7777777777......7772...................",
"..........................7777777776.....7777...................",
"..........................*77..77777.....7777...................",
"...........................7...>77777....7777...................",
"................................777777...7777...................",
".................................77777...7771...................",
".................................<77777..777....................",
"..................................7777777777....................",
"........................7..........777777777....................",
".......................@75.........<77777777....................",
".......................777o.........7777777&....................",
"......................77777+.........777777.....................",
".....................%7777777........777777.....................",
".....................7777777773.....77777777....................",
"....................777777777777777777777777....................",
"...................$7777..7777777777777777777...................",
"...................+777*...77777777777777777....................",
"....................777.....77777777777..77.....................",
".....................7.......677777774...,7.....................",
".....................X.........#777O............................",
"................................................................",
"................................................................",
"................................................................",
"................................................................",
"................................................................",
"................................................................",
"................................................................",
"................................................................",
"................................................................",
"................................................................",
"................................................................",
"................................................................",
"................................................................",
"................................................................",
"................................................................"
};
