/* XPM */
static char *_155541f770147adc205593f67941b1fIPmfDC3cpdQGQuRn[] = {
/* columns rows colors chars-per-pixel */
"64 64 235 2 ",
"   c #060200",
".  c #0B0501",
"X  c #0E0903",
"o  c #120B05",
"O  c #1A0B05",
"+  c #150D08",
"@  c #1B1106",
"#  c #161009",
"$  c #1C130B",
"%  c #1F1611",
"&  c #240400",
"*  c #2D0501",
"=  c #2D0B03",
"-  c #280A04",
";  c #350601",
":  c #3C0501",
">  c #340A03",
",  c #3B0B03",
"<  c #3D0E08",
"1  c #22160A",
"2  c #22190F",
"3  c #381109",
"4  c #241B11",
"5  c #32261A",
"6  c #2E2420",
"7  c #372E23",
"8  c #3D3324",
"9  c #3C342A",
"0  c #440501",
"q  c #4C0501",
"w  c #440A03",
"e  c #4B0A02",
"r  c #470C09",
"t  c #540501",
"y  c #5C0501",
"u  c #540A03",
"i  c #5B0A03",
"p  c #520C09",
"a  c #5C0D09",
"s  c #4B1104",
"d  c #45170B",
"f  c #4D140A",
"g  c #531205",
"h  c #57170B",
"j  c #5D120B",
"k  c #461F13",
"l  c #640501",
"z  c #6B0501",
"x  c #630A03",
"c  c #6C0A03",
"v  c #640E09",
"b  c #6C0E09",
"n  c #740501",
"m  c #7B0601",
"M  c #730B03",
"N  c #7B0B03",
"B  c #740D09",
"V  c #7A0D0A",
"C  c #651105",
"Z  c #6B1104",
"A  c #64130A",
"S  c #6C120A",
"D  c #6C1B0E",
"F  c #731104",
"G  c #7B1204",
"H  c #73130A",
"J  c #7B130B",
"K  c #74190E",
"L  c #7C1A0C",
"P  c #6B1D14",
"I  c #781411",
"U  c #731C12",
"Y  c #7A1C12",
"T  c #4D2213",
"R  c #582515",
"E  c #69200B",
"W  c #642719",
"Q  c #742213",
"!  c #762818",
"~  c #473928",
"^  c #443A2D",
"/  c #433B34",
"(  c #4B3F33",
")  c #733122",
"_  c #7A392A",
"`  c #56462F",
"'  c #4D4234",
"]  c #494039",
"[  c #584A36",
"{  c #544A3C",
"}  c #6C4A3B",
"|  c #64533C",
" . c #4F4643",
".. c #594F41",
"X. c #5D5245",
"o. c #655642",
"O. c #675A47",
"+. c #705E46",
"@. c #75634B",
"#. c #74644C",
"$. c #746855",
"%. c #7A6B54",
"&. c #7D6D5B",
"*. c #7B7159",
"=. c #7C705C",
"-. c #7B7463",
";. c #7D756B",
":. c #830601",
">. c #8A0601",
",. c #830B03",
"<. c #8B0B04",
"1. c #830D08",
"2. c #8B0E09",
"3. c #920C04",
"4. c #9A0B03",
"5. c #9A0B07",
"6. c #940E09",
"7. c #841205",
"8. c #8A1106",
"9. c #851904",
"0. c #84140B",
"q. c #8B130A",
"w. c #84190C",
"e. c #8B1B0D",
"r. c #941105",
"t. c #9C1206",
"y. c #94130B",
"u. c #9B140A",
"i. c #941A0E",
"p. c #9A1A0C",
"a. c #861913",
"s. c #8E1B12",
"d. c #9A1D13",
"f. c #A30E05",
"g. c #A50F0A",
"h. c #A71208",
"j. c #A3140B",
"k. c #A21A0D",
"l. c #A71C12",
"z. c #8E220F",
"x. c #882718",
"c. c #942315",
"v. c #9D2314",
"b. c #97291A",
"n. c #A72517",
"m. c #B22716",
"M. c #A0341F",
"N. c #902F20",
"B. c #943723",
"V. c #A63829",
"C. c #B53724",
"Z. c #8D4939",
"A. c #A7422D",
"S. c #9A5646",
"D. c #82745C",
"F. c #A46D58",
"G. c #946B68",
"H. c #827663",
"J. c #857A63",
"K. c #897B65",
"L. c #887A69",
"P. c #887F73",
"I. c #8F8166",
"U. c #8D816C",
"Y. c #94856E",
"T. c #8D8373",
"R. c #928673",
"E. c #948974",
"W. c #988A75",
"Q. c #958C7A",
"!. c #9A8D7A",
"~. c #9C927E",
"^. c #AB8570",
"/. c #A1947E",
"(. c #9A8E80",
"). c #9D9483",
"_. c #9F9884",
"`. c #A29583",
"'. c #A39985",
"]. c #A69A89",
"[. c #A59B8B",
"{. c #AA9D8C",
"}. c #BF9885",
"|. c #A69C93",
" X c #AA9F91",
".X c #A7A18A",
"XX c #ABA28D",
"oX c #B3A38F",
"OX c #ACA493",
"+X c #AFA897",
"@X c #B1A695",
"#X c #B2AA97",
"$X c #B1A699",
"%X c #B4AC9C",
"&X c #B9AF9D",
"*X c #B7B09E",
"=X c #B8B19F",
"-X c #B6ADA1",
";X c #B9AEA1",
":X c #B7B0A1",
">X c #BBB3A4",
",X c #BCB8A5",
"<X c #BDB6A9",
"1X c #BEB8AB",
"2X c #C3B6A7",
"3X c #C2B5AA",
"4X c #C2BBAC",
"5X c #C4BDB1",
"6X c #C8BFB2",
"7X c #D3B5B3",
"8X c #C6C1AE",
"9X c #C7C1B3",
"0X c #CAC3B5",
"qX c #C5C1B8",
"wX c #CCC6BA",
"eX c #CDC8BC",
"rX c #D1C7BD",
"tX c #D1CBBD",
"yX c #CFCCC1",
"uX c #D3CDC3",
"iX c #D8CFC5",
"pX c #D6D1C5",
"aX c #D9D3C6",
"sX c #D6D2CB",
"dX c #DAD4CB",
"fX c #DBD8CE",
"gX c #DCD7D3",
"hX c #DEDAD4",
"jX c #E0D9CE",
"kX c #E1DCD4",
"lX c #E3DCD9",
"zX c #E7E3DA",
"xX c #EBE7E2",
"cX c #F8F0EA",
"vX c #FDFAFD",
/* pixels */
"R W R x.D G b.i.Z i v v Z N I l z x y V N m N M <.<.r.9Xo ( X . X X ( . /.z N ,.n N 2.:.7.c :.c x i i t u w.F x e v.i Q b.h 3 T ",
"Z.T g h A K i.e.L t F i i k.x y b l l l B n 1.5.<.B <.@XX ^ o . X X 9 . D.n l V y M :.<.z z j.J q x x q M q.G G b u 7.g B.P O T ",
"T ! k N.A w.u S : v x q i 1.q i y z l y z z l m j.:.N ].o X.X + o . 7 . R.z z c 1.n <.r.V ,.M z l t t q c s.G n.7.a.Z D x.= R R ",
"& * r e t u G B J t q.e x y.t t v M y l l z M V z m ,.%Xo  .X . X X ( X E.N :.n <.3.m ,.,.N c l u i y t c c i J e.w.L g w : 3 d ",
"= > * w u i e Z q.v.u q B 0.V c 2.2.l y <.z :.n :.m :.5XX { X . + X 8 o OX>.:.f.3.6.4.M n c n l i V e.t y 0.w.i.a H c.w.V.j _ k ",
"3 f Q Y e c.L x n.N t i V t V t ,.y l y M 2.m N z :.N {.. ' o X . . ~ . ].3.<.4.3.4.q.n 5.t.:.u l c y t v x J C i w.M L K H ! 3 ",
"= > : r u C A 0 0 M H t B y 1.l l m m M l n :.3.>.n n XXo X.+ X X + ^ . .X4.:.<.3.,.z t.1.N m c V y t l 0 1.a c u G i i x.A.A.O ",
"_ r ; x.e S i Z u G q.t t l c y N M ,.M m :.n m M n :.$X. o.X X . X ^ X :X4.>.:.:.3.7.4.<.t.z 1.l t l c y.M i q.u 0.G w.x A w * ",
"R D D s 0.: L i u H c l l b l y N n <.m <.4.h.n >.<.>.@X. $.X o + X O.. -Xf.3.m n f.4.N 4.t.M x u c x z G M y.x y u a u Z i 3 & ",
"d w e i S c l y u t n.8.y ,.y l y n ,.7.>.<.<.:.3.m ^.[.X { X X X X / X ;X7X<.m :.m >.<.N 6.<.M :.c y y z r.7.i q l c F x u e 3 ",
"< ; r u b q q b q N N B i.<.z N z z n :.<.:.m 4.<.).{.. X  .. uX<X. ' o X sX#Xf.3.3.N >.,.3.>.m m N :.z ,.i l.c c H e H b i g f ",
"> ; b.w.u q 0 0 q y x B F z x ,.l n 6.m 4.>.4.<.uXfX. . gXlX0X1XaXlX0XfXX X 6X4Xn <.N h.u.k.<.<.u.z l <.k.1.<.v.H x i a 0 u Q d ",
"< r M.c i q u u l i i z ,.B y B l l n z m :.N c $X. X %X>X  X X . . X xXwX. . wXH g.5.g.:.>.y.z c B y z 7.N c S u.x c i.a i Y x.",
"f : C l.F M x q H N b y z l m l m y z z <.3.N ).  X ~.. X >X%X&X@X>X0XX X aXX . tXm n 3.z n z z ,.y.M 6.y.7.p.p.9.v 7.1.M Z b.Q ",
"Q D C.m.w t y i c.t i q.B n M z :.z n z l m _.$.  ].. / tX0XwX,X%X@X<X<XX.X $XX ]. Xm >.:.n z B c ,.j.3.l u.t.x c u G H v.g C.! ",
"C.9.G M z.a 0 M z l c y y l y n n n l z n 3.%XX ].. ;X0X4X5XuXeX4X,X5X-X1X6X+ >X. ;Xn m 5.m n n n M q.>.B p.x c.N M L x 7.e a , ",
"x.b.N x s.q q x x b l u c M l <.>.z z z ,.5X# + >X  >X+XuXcX>X. . 4XaXuX5X<X. 4XO X $X<.>.m l y.<.m H 3.N r.c t i.0.0.9.e u x Q ",
", x G Y v.u y q N l l <.N l ,.N <.3.6.:.n XX. [.  *X$X4XkXwXkX. . fX9XaXuXiXOX. {.. [.n >.6.n ,.z N M N f.x t B c u 0 v v q.u r ",
"w L 0 M C x q i u i c N N z M r.M N ,.:.{.+ 6 P.0X3X>X:X4XiX. . . . wXuXwX>X,XXX-.9 + '.m >.:.,.N <.y.8.1.B i e w a t 0 i u K c.",
"e.e.L 9.d.x q y V t y c 2.2.l 4.:.<.5.3.!.. OX  >X%X>X,X0XiX. . . wX0XaX4XyX3X{.  OXX -X:.5.,.3.B t.t.u.M z ,.y i c u i w i.w c.",
"f B b.n.s.B x c t t t y M N z 3.<.>.:.M 5X. XX,X9X*X>X>X9X      . wX%XgXdX0X<X@X4X+XX ).m m n n z ,.q.M 2.k.V b x b e C w x a U ",
"r w q i e.H t x 0.u y l l 2.n n M ,.m F.o %X. {.,X4XtX9X$ . .   uXiX4XpXdX:X:X#X<X  4XX }.:.m 3.z t.u.r.,.z 3.,.i q 0 c N v.e x.",
"v e w u m.c y b 1.z t.l >.l m N g.n r.OXX <XX 8X0XtXtXgX. . .   0XwXtX] 1X8X#X+X,X. OX  {.m n n n >.6.j.y.z M i.l u q x c.0.C K ",
"$.o.+.| %.&.].W.D.#XJ.).@X0XT./.>X'.4X'.  5XuX#X4X3X,X.   .   gX,X5XpX. X 3X>X>X9X*X>X. {.{.~.R.R._.4X`.1X!.XX#.Y.[ ` o.*.#.J.%.",
"L.$.K.R.%.T.%X~.T.{.K.OX$XOX%X).Q.Q.[.].. X :X#X>XuX0X  .     dXlXwX.   . fXtX3X,X;X  X _.).~.]._.R.+XOX8X3X].Q.#.D.| -.+.~.H.K.",
"1 5 + 1 $ $ $ X . X X o o o o X o . . X 0XX %X>X:X5X  .     aXsXlXpX.   .   fX:X4X@X. /.. . . . X X . X # $ # $ o X . o # $ . X ",
"K.K.!.P.D.].H.+.D.D.W.$X].>X'.#X-XwX;XkXuXX 3X#X,XtXuX.       xXzX    . . . aX:X4X9XX ].[.$X5X[.E.'.%XOX#XY.#X].!.D.@.&.I.{.).W.",
"P.o.!.#.2XH.&.O.!.E.&X9X X>X X{.T.[.%X<X:X[.@X%X4X9X<XtX      aXlX.   . . . X fXuX0XQ.#X).).$X[. X_.%X>X%XXXtX=.(.J.H.[ K.P.H.( ",
"X X + o % 2 O . . X o # o o X X X . . + 3X3X%XOX<X3X4XgX.           .   .   . 6 aXuX:X'.. . o . X X + o $ # @ X # O o o . @ $ 1 ",
"X o o 2 X + o . X . + o + X . . . . o X 0X-X@X5X  :XeXlXgX      .     0X    . . 0X-X9XOX. . + . X X X X o X o X # $ @ 4 @ O o $ ",
". . o 4 5 . . .   . O + . . . X X X X X ;X:X0X. . >X5XzXlX          . yXyX    .   4X>X>XX . . o o   X . X X X % + o o o + $ 2 X ",
". X 1 4 X . o X o . X X   . + X . . X X kX%X*X.   . 9XgXtXuX        uXwXeX.     . <X<X;XX . o X X X . . X X # $ # @ X . X . X   ",
"+ . o 2 O X   o . . X . . X . + . X . . <X%XtX      X iXxXsX        hXhXaXwX    . 4X3XuX. . . . X . o . X o $ 2 + X . . X X . X ",
"o   $ $ + 5 . . . . . . . X . X O X . X -X{.:X.       hXuX          . xXuXyX|.. X -X>XaXX . + X . . o o o + O .   X # # % o   . ",
"X X . 1 . X o . X X X . . X . X X .   X OX%XOXOXX       xX            fXwXuXsX. -XpXsXpX. o o . X o   . X O O X . + X $ o 2 X . ",
"X . 2 @ X . .   . . O . . . . . . X X . 1X].=XeX%     .                 wXrXsXeX<X6XyX1X. . o X X X . X   X $ . . o o X X # @ . ",
"$.$.=.I.[ K.O.*.!.R.'.H.).].].<XE.<X<XQ.:XL.OX1X1X.   X       zXdX    . tXqXwX>X0X4X|.1X1X+X].%X4X;X-XOX<X&XE.[.L.-.T.$.~.R.H.X.",
"D.| | J.{ +.~.~.L.*.%.E.U.J.!.@X%X$XOX@X%X. OX4X1XaX          0XlX    . . wXzX4XqX$XX yXuX$X>X`.<XE.%X_.%X$XK.Q._.`.%X1Xo.*.~ ` ",
"X O o $ . X 4 o o o X . o . . . .   . . +X  OX>X6X,X  X     tXeXxXeX      X fXiXyX-XX %XX X X + X X O X . O $ % # O $   2 . O o ",
"E.o.[ '.O.I.#X%.=.Q.H.&.=.H.&.#X'.(.[.XXo . :XeX4XeXwX  . . tXxXsXT.  .   tXuX9X5X<X. X |.1XwX1X(.OX5XE.Q.;X4X>X[.0X/.`.K.[ o.).",
"&.' o.$.(.#.%.{.:XJ.D.%.I.%X!.).%X%X[.XX. OX>X[.=X#X5X. . 0X9X0XfX. . . X wXdXyX3X%X4X. 4X4XOXE.{.K.Q.'.Q.R.%X#.L.dXD.Q.` | [ ~ ",
"0 : j x u c F N N N 1.c N u.z <.z <.N OXX >X+ #XfX=X0X:X. ,X<X8X.   .   kXwXdXtXxX. $X.  Xm m >.z n l :.z i r.0.N s.i.H I w u Y ",
"D u 0 p i N c q.M N <.<.J k.n ,.m N :.S.X &X. >X4XXX=XtX<X,X4X<X. .   . 6XkX5XpXrX. iX. }.<.m c N c M <.y B B l e q A i b e u S ",
"w 0 b 0 i v B b q.N 7.N m u.m M 3.m :.:.'.  >XwX4X4XtX>X3X8XeX.     . wXaXtX-X0X&X,Xo %Xm m n m n l M :.,.y t y q t q x u y 0 , ",
": p q i e.t q p.x q.7.q.l r.B z N m <.>.%X  -X  >X9X%X3X,X%X4X  .   ] aXuXsXsXuX. OXo ~.:.:.N m M z z z 7.1.M k.x b q H u u V w ",
": w p c i G S c y N k.N c z l z n <.:.h.1X+ 6 T.=X0X4XeX1X>XX .   . 4X%X9X<X4XOX;.7 + %Xm l N m l ,.,.2.m N 8.7.c z u j m.q q g ",
"j w 0 u e G k.a a B c y.V l l z >.M :.,.>.OXX %XX >X+XaX*X:XtX. . 4XuX1X4X5X%X  %X  ].n n n 3.m z c z q.y l c i G m q A e x i ; ",
"A p b.g i C F z i G p.q.N z l 2.u.>.3.4.:.'.+ # {.  %X#XOX>X3X.   wXuXiX1XeX  :XX X ).m z n >.<.n <.M c u l i x x q c u u i e w ",
"b.w G x A u 0.p.V H N q.M z y m ,.:.5.1.:.,.~.  :X. [.OXXX:X>X,X%X0XeX<X5X5X. 4X  {.m n l 6.<.g.z u.q.q.t l i x v q J x C u e w ",
"f w w u e e M N H M n M N y c z m m >.<.n m $X).X XX  ^ =X:X=XtX1XeX9X9X .. <XX U.).n n z n m M m j.N ,.y i N x u z z a u e.s s ",
"p : e e e B x p.M n n r.2.c M >.,.N 3.5.5.4.n [..   #X. . 3X0X:X4XpX$X. X -X  . -Xm :.:.:.t.n ,.M l 2.M y N N M N u M e v e e f ",
"< : e e e J Z S c w.k.7.1.n x 2.<.u.:.z n :.:.B {..   %X>X  .     X . qXXX.   XXJ n :.4.,.3.3.m x z z x u x M 8.v b u w : w U 3 ",
", ; w A c e.e.d.7.i u.B b y m t.N u.<.n 1.>.n :.#X]..   %XwX-XXXeXeXtX>X  . ].OXn >.m 3.N :.V n z l l q.N c l.M y x q v u L ; * ",
"B.r Q g q.G J i.7.p.,.<.t y l j.N r.:.l c 4.3.:.3.OX<XX . {   -X%XO ' o . 2XOX>.3.n n :.3.m m V B z n c <.y.B H c i w v i : h s ",
", w W m.n.K c x e.d.N l u q B f.u.n :.y N 4.<.:.:.4.@X{.  ..  . X # {   :X2X4.>.1.6.m ,.2.M ,.q.n :.,.M x 0.0.l w q 0 : 0 : s - ",
"; x.A g L v.K q.c s.l u v z c t m h.<.<.N ,.<.>.3.3.:.&X. $.. . . o {   oX5.4.q.m :.n y.m q.3.x 2.,.y c B I u t e q 0 q 0 ; * - ",
"= < V.r j t w.Z 0.q t t u.V x y <.u.j.l 0.:.<.m <.:.M ~.X ..  .   X { . sX<.m n :.N z :.z z k.y M 1.y u u x q e w v e w : : > - ",
"W s V.x.p e p.n.Z i q t c z M 8.,.<.M l n n 3.4.3.z :.E.  8 . . X o ' . %Xn :.<.M :.l z N x y c B n d.c z M i q t : 0 0 u f < & ",
"W < > s.e u a M S i e V u v l l.z k.g.n x z 3.6.n :.,.OX. ^   . o + ^ . XX>.m n N z z M N M 0.M z z N c i t i H u J e e : ; , 3 ",
"k ! g U A 0 S i u u q M t t c r.N ,.N t y z 3.n M z n XX  ~ .   . o ^ . 4X<.z m n z z z ,.>.m N B H y t t w x N x L w.u ; > - k ",
"R ! A.Q u a u i V y q u q q y 1.h.u.y l n m N z z n n I.. 7 X . . . 8 X '.n <.<.n l z B y u.l.j.y.2.y.u 0.z S M e t q e w d = k ",
"_ ! E V.x.e w 0 A t q x t q x y.h.M u l ,.l u :.z z z '.X ^ O X . . ~ o 1X<.q.3.m y c l N y.k.M l.y.k.w.c S 0.j H x.K : L E > O ",
"< ! Z.N.C.F i : u q 0 q b c ,.M <.8.c ,.l l c x z n 3.'.X ~ X o o + 8 X E.<.3.N z B l l n l B N <.c y.m.G.cX} 7X^.G.vXvX7X3XgX;.",
"} 1 w B.s : e q q u e u x u c z 6.M l.1.y z l c c N N ~.O ' . X X . 7 . -X5.6.i z l l z y y y n G q.y B n.0.i.H 0 G D s a S.) O "
};
รฅรง