/* XPM */
static char *d127ec9235d4453e9b539351f4934d46nqA4TXUBQhyjLkzX[] = {
/* columns rows colors chars-per-pixel */
"64 64 63 1 ",
"  c #060606",
". c gray4",
"X c #0C0C0C",
"o c #111111",
"O c gray9",
"+ c #1B1B1B",
"@ c gray12",
"# c gray13",
"$ c #272727",
"% c #282828",
"& c gray18",
"* c gray20",
"= c #343434",
"- c #3A3A3A",
"; c gray24",
": c #434343",
"> c #444444",
", c gray29",
"< c #4E4E4E",
"1 c gray32",
"2 c gray34",
"3 c #5B5B5B",
"4 c gray37",
"5 c gray38",
"6 c #656565",
"7 c #6A6A6A",
"8 c #6F6F6F",
"9 c gray45",
"0 c gray46",
"q c gray47",
"w c gray50",
"e c #838383",
"r c #868686",
"t c #898989",
"y c gray55",
"u c #929292",
"i c gray59",
"p c #9B9B9B",
"a c gray61",
"s c #A2A2A2",
"d c #A7A7A7",
"f c #AAAAAA",
"g c #AFAFAF",
"h c gray70",
"j c gray71",
"k c gray73",
"l c gray",
"z c #C1C1C1",
"x c gray77",
"c c #CBCBCB",
"v c gray80",
"b c LightGray",
"n c gray84",
"m c gray86",
"M c #DDDDDD",
"N c gray88",
"B c #E4E4E4",
"V c #E9E9E9",
"C c #EFEFEF",
"Z c #F1F1F1",
"A c gray96",
"S c #F9F9F9",
"D c #FDFDFD",
/* pixels */
"cnvbvvlhlzjlshaduyiq8q9557wgzkzjsutytfshlhhzzcnMmNNMNMBVVBVVCVZC",
"cvnvckxlczjggfuitq6636>1,9zvjkjzljt9ygdkhgjgjcbVmMMnMMNBBMVMMMVV",
"ccccvxzlfllhputww94<;1:-7guurrpihllk8yufdfapfxzMMMMBCMVBVMmMMmMN",
"cxzxvvclzjjhaauw047>-=-:geqrq6wia8ygkresaaerdhnMMmNBMBMNBBmbmbnM",
"lxczcxclkzkghayeuq3,,--drrq5>,4piiq9skpajsrtslbNNVBBBBBVCBnncnnM",
"cvzkcccbkzjdfsrew863;:0tt6<2&OX+2yd19ukgsdusijvNBVCMVCCBVBmbvbNm",
"zczczvcvclhfiayete72;>tw>%#o .%8=Xo1q4agkgfthlMBBBBCBVBVNBmbNmBV",
"xvzcczzzjlhdaiyyww81:w9&####26:+.#+X+15szffdhbNBCCZVNCVVVBMMMVCV",
"czzzczccckkhuuyyu09<<2#1ysnbmBNMMl=@oO%tifjjxnBMCVVCBNCBVVBNCZSC",
"lcbxzbvckkgffttqt67;4#ybMNVCVCZZASZM@O*-dhlcnMVVVCZBVZVCCNNNMAAZ",
"ccvvbvvckhdfapwrr96;<emCCCZZAZZZASAAA,o=tkcjvnBCCZCVCCVZVBBBVCAD",
"lccvvzckkgjhaueqt06xwNVVNVCCCZAAZZSZAZ$*=slvcNCCCVVZBVVCCBMMBZZA",
"lMcxcbzczkkhipteweibzMmnNBCZAAASAAAAAAC#-ylcxNCZCCCZCACVVVMmBCCC",
"xcxvcxczxljgppuwttbknbNbmmVZAAAZZAASACZN;<kxcMBCZBAZZZAZCCBMBCZZ",
"vvzxxvxzxkkfdurwtgzwbxjvmMCZAZZCAZASAZCZ;*lkcmVCNCCVBZVVZZVNMVCC",
"xxzcxvlklkkgpurwtseuvlcbmNBCZACCZAAAASZCV*hjlbNNVCCBBVZZZCCBVAZZ",
"kxlljlkllkgfiyqe98,hkzzbvBBBAZCBVCZCZSSBV&9ssklnmNZZCCVVAACBAADD",
"xllkljjlkzfjpaew0==ddgkMbmvvBZBMNNVVZAZCVq<sphfkxMNVCAVCVCZBAADS",
"clzzjlljzghditr6<%&8aykMMvkgxnnxbxmNNMNVNc:uuiysxnBVCZCAACZZZSDS",
"czcklzzzhhfdi0885@&4wedmvcxjsknzh099lvmmBm=a0reigxmNBCVVZZVZZADS",
"zlzzkazkjjffpre08+;;qwhllfw663xvi>>4fljlZN;yrw0qpknNZBZVZVBBMCAZ",
"xzjlllklghatiauty;-=w8gptr-1*-fna154ryxhVV1tw876qhvMVZCVCMNMMVVV",
"vlllkxzsjsidfddfd,*:t0e1qgved*dms<5&#*5MBB3g47560thnMBCACNmbzbmm",
"lzjlljkkgfagdklkg*$,994>97,y><hVcuugyktpxVwk52156wpcmNCCCNmlhhzl",
"zllkhjljkfddkkzxz#&50w:,+X@y2wkBMppcCNBMmMfx,<2<60phvBBZBNxsuyri",
"zxgkkgkljgpjcxvvxO@=r8,=o0ycvufBmNvlzpzmMMxt>><,36efknVVCMxiq547",
"gkfgjkjkkafhccmnn=+&7ai#7ekbkdrVCNVnMBZBNMNZb;,>359yhknNCnzy7221",
"zkhjljkhgspfkcvmc<&%8eiukzkfmghMCBVNBVVZCMMz77>:,689akvMVmjr61<,",
"hlfckkxkkaakkzxvca:>uwaw>4tznkfmVBMNCZCVNbxzeu,,,247qdzbNcgu31::",
"jggljhjkghaakbcbcv,>qeygnnbcdhfmVBBuMCBVnbmVzk>>><478pgxvxjt6<::",
"jhjczjkhfsfdzzvvcht*58tfxNmbyxhgjnnvyvmNmmvcNj2>2<2<40gjvzft5<;-",
"ggjkcjzlkggkklvnc>1132rykcxf7y;45rqa5shxbblbNu22<<<439uhzlje42:-",
"jlgzxxjzgdglkvnvz;*;,43eiff8=>X*=ooi-9ugkvxnN34221>324rsfgfu73>>",
"hhkjxlljdgjjbnMmx22->1>7ei9<-X.XOo@3830pjhcvB2672,,2446yisgtq834",
"jlkjhjklkadlvbmnn23$3,25389,&.X.X&&>g=5idjlCB007512,346wisire941",
"gkjfkljhhdffxbvmve8,,25>>><;*o@#-@;=dtyjgklNCtwwq522<689ryureqw8",
"jkhglfhkhadhxbcxxu6>2,>;>,:*-+O@+-%>udglsjhCZtr09543>235qireyuur",
"jkfffzkhgpidfkhlsf08>,;-<>;;=&#*$:%*3kvvkhkNVpye964332268wuuadaa",
"affsfdsagiypisddyuyu=3>23641;=#*%9rlzhvcjlfpxureq841<122590rsask",
"fhsduphpsutueeyq5398r,>42rw1&O>8ivnbnzzlddptyurr8065<24577erdhcc",
"dsayasyppey09964,--di:<<20yr;<6takMbbnlljgapurwe98645332650eazmN",
"dydgyrupww95693>*-*w5=;15<irr40uushbmmkjzftrwterw57895346w9rhcNV",
"dpsurqwq954>1:;&&-=;,%:;7*etrw7ipjjvMMchxsitry0qwe9897<16609acNV",
"sdtt009353,;*;*&=$$=#%,=7=4g4u86fkvvmnbjkfpypeq00eqt0552389wixnZ",
"edqe091::;;=**-#&$$@&%*%45:wuauuajmMBNvjfisff90wwutt8q73625wujMB",
"tt0w51;---&*%%;#$$$#%$%*%6:5shgflxmmNnzfjepgie9e0uuyr8913609rdvV",
"qy852:$%**&=*%=%#@*$+@%=$,<78esuddbbxvfpirhgy747rrspyyw987790yxn",
"t771>;&$*%%$*%%*$$###@%*&-1<36qiszfpgsrerwdtu3<7qyaspyreq568wwsk",
"e653-=-#$%$&==&%@#+@#@@>*&>--:>298990r8eeedspq;5wyifsupeq5400epj",
"967>=*&%#=%$&=%&#@+@##@,-#*=$&::17315139qlpfy3;2wyufdpre9888wwtd",
"652;%=&##%*#*$$%#$@o$@#:%%@=*@%@$>*$*>870vNfa2,88dghddpt0e798wwy",
"52>-&$&$&&&$&&%&##O+#%%-=$%==*%%%%$$;423hpvdsq:68pdjghhyt9w99ewy",
"1<>*&*&$$&%$$&$#@+O#%&%=&%$**=*%%*=:2<50kfzai6,3rpljhjfdpyw8990q",
"2,-;%&-&%%&&$$&#@@+$$$&*;$%&%%**;-;;:,7dpfkbd5-4tpjxzxdsaye9988e",
"=*:=****%&%=&%#@+$$##=%=-&%-%%&&;&*1>56qfplnt5:4qpckcljgdiwrq0q9",
";-%**%&&&&$;*%O#O@O%&&**2<&-%&%&%&1,616uwsjnk1>6yslmcbxksdrwqw7q",
"*$&*%%&=-@=*#@O+O++#*&:;6<->*:==>,>5*7eypajlM449yhhxnnccldpir099",
"%&*=-&*=*&#%@@+@&$@$&=*5>9<*==>3355oqtetshhjbB1teiklmnzxhssftr09",
"&*%-=;*+$#@$&@+#@$&&%*>6w,p2&;>545;70w8pdsjcvMCyuskllbzzlfsiiqe9",
"*&$*=&%$+@@O%#@%+&&=--=112461%-11187qtutdhkkmbvCillzxnxczlgfgtq7",
"$&*&-$$%@#$$+@#+*&%&*&>72463862*17q9rydifgzljvBnhvxkbmMnzxzhpwr8",
"%##&&@$+#%+$O+@+%&%;*<2qq149635e88rq8uutfhxvwmMvBnxkMmmnvvlkhdy0",
"$&*&&+%+O+oO$+&$*=#;-,1u52<6u4suq5eqryaddjkslvmnBNMkvMMbvmcxghyt",
"@@$-&&=@@oO#@%&$===;,14y2:1qyespe9ttyyypdk&vvcbbVBvNVBhVnnvzksfy"
};
